<svg xmlns="http://www.w3.org/2000/svg" width="208.32" height="35" viewBox="0 0 208.32 35"><rect class="svg__rect" x="0" y="0" width="97.71000000000001" height="35" fill="#E46C17"/><rect class="svg__rect" x="95.71000000000001" y="0" width="112.60999999999999" height="35" fill="#D35B09"/><path class="svg__text" d="M17.33 22L14.22 22L14.22 13.47L17.14 13.47Q18.59 13.47 19.34 14.05Q20.10 14.63 20.10 15.78L20.10 15.78Q20.10 16.36 19.78 16.83Q19.47 17.30 18.86 17.56L18.86 17.56Q19.55 17.75 19.93 18.26Q20.31 18.78 20.31 19.51L20.31 19.51Q20.31 20.71 19.53 21.36Q18.76 22 17.33 22L17.33 22ZM15.70 18.15L15.70 20.82L17.35 20.82Q18.04 20.82 18.44 20.47Q18.83 20.13 18.83 19.51L18.83 19.51Q18.83 18.18 17.47 18.15L17.47 18.15L15.70 18.15ZM15.70 14.66L15.70 17.06L17.15 17.06Q17.84 17.06 18.23 16.75Q18.62 16.43 18.62 15.86L18.62 15.86Q18.62 15.23 18.26 14.95Q17.90 14.66 17.14 14.66L17.14 14.66L15.70 14.66ZM24.64 19.16L24.64 19.16L24.64 13.47L26.12 13.47L26.12 19.18Q26.12 20.03 26.55 20.48Q26.98 20.93 27.83 20.93L27.83 20.93Q29.54 20.93 29.54 19.13L29.54 19.13L29.54 13.47L31.02 13.47L31.02 19.17Q31.02 20.53 30.15 21.32Q29.28 22.12 27.83 22.12L27.83 22.12Q26.36 22.12 25.50 21.33Q24.64 20.55 24.64 19.16ZM37.15 22L35.67 22L35.67 13.47L37.15 13.47L37.15 22ZM47.32 22L41.96 22L41.96 13.47L43.44 13.47L43.44 20.82L47.32 20.82L47.32 22ZM53.12 14.66L50.49 14.66L50.49 13.47L57.25 13.47L57.25 14.66L54.59 14.66L54.59 22L53.12 22L53.12 14.66ZM70.10 22L66.99 22L66.99 13.47L69.91 13.47Q71.36 13.47 72.11 14.05Q72.87 14.63 72.87 15.78L72.87 15.78Q72.87 16.36 72.55 16.83Q72.24 17.30 71.63 17.56L71.63 17.56Q72.32 17.75 72.70 18.26Q73.07 18.78 73.07 19.51L73.07 19.51Q73.07 20.71 72.30 21.36Q71.53 22 70.10 22L70.10 22ZM68.47 18.15L68.47 20.82L70.12 20.82Q70.81 20.82 71.21 20.47Q71.60 20.13 71.60 19.51L71.60 19.51Q71.60 18.18 70.24 18.15L70.24 18.15L68.47 18.15ZM68.47 14.66L68.47 17.06L69.92 17.06Q70.61 17.06 71.00 16.75Q71.39 16.43 71.39 15.86L71.39 15.86Q71.39 15.23 71.03 14.95Q70.67 14.66 69.91 14.66L69.91 14.66L68.47 14.66ZM79.58 18.86L76.72 13.47L78.37 13.47L80.33 17.51L82.29 13.47L83.93 13.47L81.07 18.86L81.07 22L79.58 22L79.58 18.86Z" fill="#FFFFFF"/><path class="svg__text" d="M116.28 22L109.90 22L109.90 13.60L112.28 13.60L112.28 20.11L116.28 20.11L116.28 22ZM127.45 22L120.70 22L120.70 13.60L127.29 13.60L127.29 15.44L123.06 15.44L123.06 16.85L126.79 16.85L126.79 18.63L123.06 18.63L123.06 20.17L127.45 20.17L127.45 22ZM131.67 21.24L131.67 21.24L132.44 19.49Q133.01 19.86 133.75 20.09Q134.50 20.32 135.22 20.32L135.22 20.32Q136.58 20.32 136.59 19.64L136.59 19.64Q136.59 19.28 136.20 19.11Q135.81 18.93 134.94 18.74L134.94 18.74Q133.99 18.53 133.36 18.30Q132.72 18.06 132.27 17.55Q131.81 17.03 131.81 16.16L131.81 16.16Q131.81 15.39 132.23 14.77Q132.65 14.15 133.48 13.79Q134.32 13.43 135.53 13.43L135.53 13.43Q136.35 13.43 137.16 13.62Q137.96 13.80 138.58 14.17L138.58 14.17L137.85 15.93Q136.65 15.28 135.52 15.28L135.52 15.28Q134.81 15.28 134.48 15.49Q134.16 15.70 134.16 16.04L134.16 16.04Q134.16 16.37 134.55 16.54Q134.93 16.71 135.78 16.89L135.78 16.89Q136.74 17.10 137.37 17.33Q138.00 17.56 138.46 18.07Q138.93 18.58 138.93 19.46L138.93 19.46Q138.93 20.21 138.51 20.83Q138.09 21.44 137.25 21.80Q136.41 22.17 135.20 22.17L135.20 22.17Q134.19 22.17 133.22 21.92Q132.26 21.67 131.67 21.24ZM148.04 22L143.50 22L143.50 13.60L147.80 13.60Q149.41 13.60 150.25 14.19Q151.09 14.79 151.09 15.79L151.09 15.79Q151.09 16.39 150.79 16.87Q150.50 17.34 149.96 17.62L149.96 17.62Q150.68 17.87 151.09 18.41Q151.49 18.94 151.49 19.70L151.49 19.70Q151.49 20.80 150.61 21.40Q149.72 22 148.04 22L148.04 22ZM145.86 18.58L145.86 20.28L147.85 20.28Q149.10 20.28 149.10 19.43L149.10 19.43Q149.10 18.58 147.85 18.58L147.85 18.58L145.86 18.58ZM145.86 15.31L145.86 16.94L147.49 16.94Q148.69 16.94 148.69 16.12L148.69 16.12Q148.69 15.31 147.49 15.31L147.49 15.31L145.86 15.31ZM158.59 22L156.21 22L156.21 13.60L158.59 13.60L158.59 22ZM165.18 22L162.76 22L166.46 13.60L168.81 13.60L172.52 22L170.06 22L169.39 20.37L165.84 20.37L165.18 22ZM167.62 15.93L166.53 18.61L168.70 18.61L167.62 15.93ZM179.01 22L176.68 22L176.68 13.60L178.63 13.60L182.34 18.07L182.34 13.60L184.67 13.60L184.67 22L182.72 22L179.01 17.52L179.01 22ZM189.25 21.24L189.25 21.24L190.02 19.49Q190.59 19.86 191.33 20.09Q192.08 20.32 192.80 20.32L192.80 20.32Q194.16 20.32 194.17 19.64L194.17 19.64Q194.17 19.28 193.78 19.11Q193.39 18.93 192.52 18.74L192.52 18.74Q191.57 18.53 190.94 18.30Q190.30 18.06 189.85 17.55Q189.39 17.03 189.39 16.16L189.39 16.16Q189.39 15.39 189.81 14.77Q190.23 14.15 191.06 13.79Q191.90 13.43 193.11 13.43L193.11 13.43Q193.93 13.43 194.74 13.62Q195.54 13.80 196.16 14.17L196.16 14.17L195.43 15.93Q194.23 15.28 193.10 15.28L193.10 15.28Q192.39 15.28 192.06 15.49Q191.74 15.70 191.74 16.04L191.74 16.04Q191.74 16.37 192.13 16.54Q192.51 16.71 193.36 16.89L193.36 16.89Q194.32 17.10 194.95 17.33Q195.58 17.56 196.04 18.07Q196.51 18.58 196.51 19.46L196.51 19.46Q196.51 20.21 196.09 20.83Q195.67 21.44 194.83 21.80Q193.99 22.17 192.78 22.17L192.78 22.17Q191.77 22.17 190.80 21.92Q189.84 21.67 189.25 21.24Z" fill="#FFFFFF" x="108.71000000000001"/></svg>